<svg width="143" height="26" viewBox="0 0 143 26" fill="none" xmlns="http://www.w3.org/2000/svg">
<path d="M7.55825 25.33C6.63425 25.33 5.72125 25.22 4.81925 25C3.91725 24.758 3.11425 24.472 2.41025 24.142C1.70625 23.79 1.17825 23.438 0.826249 23.086L2.57525 19.951C2.81725 20.149 3.19125 20.413 3.69725 20.743C4.22525 21.051 4.83025 21.326 5.51225 21.568C6.19425 21.81 6.87625 21.931 7.55825 21.931C8.68025 21.931 9.61525 21.667 10.3633 21.139C11.1332 20.611 11.5182 19.841 11.5182 18.829C11.5182 17.993 11.2982 17.3 10.8582 16.75C10.4182 16.2 9.83525 15.716 9.10925 15.298C8.40525 14.88 7.63525 14.484 6.79925 14.11C5.98525 13.714 5.20425 13.274 4.45625 12.79C3.59825 12.218 2.85025 11.459 2.21225 10.513C1.57425 9.567 1.25525 8.346 1.25525 6.85C1.25525 5.376 1.58525 4.166 2.24525 3.22C2.92725 2.274 3.81825 1.57 4.91825 1.108C6.04025 0.623998 7.26125 0.381998 8.58125 0.381998C9.63725 0.381998 10.5392 0.491998 11.2872 0.711998C12.0353 0.931999 12.6623 1.196 13.1683 1.504C13.6743 1.812 14.0703 2.087 14.3562 2.329L12.6072 5.332C12.2332 4.936 11.6722 4.573 10.9242 4.243C10.1763 3.891 9.34025 3.715 8.41625 3.715C7.33825 3.715 6.48025 3.968 5.84225 4.474C5.20425 4.958 4.88525 5.684 4.88525 6.652C4.88525 7.51 5.17125 8.247 5.74325 8.863C6.31525 9.457 7.04125 10.007 7.92125 10.513C8.82325 10.997 9.74725 11.492 10.6932 11.998C11.6392 12.504 12.4753 13.098 13.2012 13.78C13.7953 14.308 14.3013 14.968 14.7192 15.76C15.1372 16.552 15.3462 17.443 15.3462 18.433C15.3462 19.929 14.9943 21.194 14.2903 22.228C13.6083 23.262 12.6842 24.043 11.5182 24.571C10.3522 25.077 9.03225 25.33 7.55825 25.33ZM27.0081 25.33C24.8961 25.33 23.2021 24.901 21.9261 24.043C20.6721 23.185 19.7591 21.953 19.1871 20.347C18.6371 18.741 18.3621 16.838 18.3621 14.638V0.745H22.0581V14.704C22.0581 17.278 22.4431 19.126 23.2131 20.248C24.0051 21.348 25.2701 21.898 27.0081 21.898C28.7461 21.898 30.0001 21.359 30.7701 20.281C31.5401 19.203 31.9251 17.344 31.9251 14.704V0.745H35.6541V14.638C35.6541 18.026 34.9501 20.655 33.5421 22.525C32.1341 24.395 29.9561 25.33 27.0081 25.33ZM39.6554 25V0.745H43.2854V11.569L51.6014 0.745H56.0234L47.6744 11.404L57.2114 25H52.6904L45.2654 14.143L43.2854 16.585V25H39.6554ZM59.2014 25V0.745H64.7124C65.9444 0.745 67.1324 0.865999 68.2764 1.108C69.4424 1.35 70.4764 1.757 71.3784 2.329C72.2804 2.901 72.9954 3.66 73.5234 4.606C74.0514 5.552 74.3154 6.718 74.3154 8.104C74.3154 9.71 73.9414 11.107 73.1934 12.295C72.4454 13.483 71.3124 14.396 69.7944 15.034L75.5694 25H71.3124L66.4284 15.826C66.0544 15.848 65.5924 15.87 65.0424 15.892C64.5144 15.892 64.0744 15.892 63.7224 15.892H62.7984V25H59.2014ZM62.7984 12.889H65.1414C66.3514 12.889 67.3194 12.735 68.0454 12.427C68.7934 12.119 69.3654 11.734 69.7614 11.272C70.1574 10.788 70.4214 10.271 70.5534 9.721C70.7074 9.149 70.7844 8.621 70.7844 8.137C70.7844 7.059 70.5314 6.212 70.0254 5.596C69.5414 4.958 68.8594 4.507 67.9794 4.243C67.1214 3.957 66.1314 3.814 65.0094 3.814H62.7984V12.889ZM78.5211 25V0.745H89.1471V3.979H82.1841V10.678H87.7941V13.978H82.1841V21.733H90.2361V25H78.5211ZM102.264 0.711998H102.627L114.309 25H110.052L107.973 20.248H96.8516L94.7726 25H90.6476L102.264 0.711998ZM102.429 7.741L100.977 11.041L98.3366 16.915H106.521L103.914 11.074L102.495 7.741H102.429ZM128.725 25L122.884 13.681L121.366 10.249L120.673 13.681L118.429 25H114.766L119.782 0.745H120.178L126.844 13.846L128.824 18.235L130.804 13.846L137.338 0.745H137.701L142.915 25H139.285L136.843 13.681L136.117 10.249L134.797 13.681L128.923 25H128.725Z" fill="#F76059"/>
</svg>
