<svg width="24" height="40" viewBox="0 0 24 40" fill="none" xmlns="http://www.w3.org/2000/svg">
<path d="M18.375 13.3496C19.111 13.3496 19.8165 13.6427 20.3369 14.1631C20.8573 14.6835 21.1504 15.389 21.1504 16.125V16.5C21.1504 18.364 19.9634 19.9235 18.3164 20.9717C16.6577 22.027 14.4224 22.6504 12 22.6504C9.57762 22.6504 7.3416 22.027 5.68359 20.9717C4.03659 19.9235 2.84961 18.364 2.84961 16.5V16.125C2.84961 15.389 3.14267 14.6835 3.66309 14.1631C4.1835 13.6427 4.88902 13.3496 5.625 13.3496H18.375ZM5.625 15.1504C5.36641 15.1504 5.1184 15.2527 4.93555 15.4355C4.7527 15.6184 4.65039 15.8664 4.65039 16.125V16.5C4.65039 17.4705 5.2307 18.4694 6.40625 19.291L6.64941 19.4531L6.90527 19.6074C8.21463 20.3644 9.99965 20.8496 12 20.8496C14.1336 20.8496 16.0229 20.2981 17.3506 19.4531C18.6886 18.602 19.3496 17.5359 19.3496 16.5V16.125C19.3496 15.8664 19.2473 15.6184 19.0645 15.4355C18.8816 15.2527 18.6336 15.1504 18.375 15.1504H5.625ZM12 1.34961C13.4322 1.34961 14.8057 1.91894 15.8184 2.93164C16.8311 3.94434 17.4004 5.31783 17.4004 6.75C17.4004 8.18217 16.8311 9.55566 15.8184 10.5684C14.8057 11.5811 13.4322 12.1504 12 12.1504C10.5678 12.1504 9.19434 11.5811 8.18164 10.5684C7.16894 9.55566 6.59961 8.18217 6.59961 6.75C6.59961 5.31783 7.16894 3.94434 8.18164 2.93164C9.19434 1.91894 10.5678 1.34961 12 1.34961ZM12 3.15039C11.0452 3.15039 10.1292 3.52897 9.4541 4.2041C8.77897 4.87923 8.40039 5.79522 8.40039 6.75C8.40039 7.70478 8.77897 8.62077 9.4541 9.2959C10.1292 9.97103 11.0452 10.3496 12 10.3496C12.9548 10.3496 13.8708 9.97103 14.5459 9.2959C15.221 8.62077 15.5996 7.70478 15.5996 6.75C15.5996 5.79522 15.221 4.87923 14.5459 4.2041C13.8708 3.52897 12.9548 3.15039 12 3.15039Z" fill="#F76059" stroke="#F76059" stroke-width="0.3"/>
<path d="M2.93686 27.904H7.50186V34.328H2.93686V27.904ZM6.59986 28.63H3.82786V33.591H6.59986V28.63ZM9.27286 26.903H10.1859V36.858H9.27286V26.903ZM9.97686 30.874H11.8139V31.644H9.97686V30.874ZM19.667 26.903H20.58V36.869H19.667V26.903ZM15.333 27.673C15.8243 27.673 16.257 27.816 16.631 28.102C17.0123 28.3807 17.3093 28.7803 17.522 29.301C17.742 29.8217 17.852 30.434 17.852 31.138C17.852 31.842 17.742 32.4543 17.522 32.975C17.3093 33.4957 17.0123 33.899 16.631 34.185C16.257 34.471 15.8243 34.614 15.333 34.614C14.8417 34.614 14.4053 34.471 14.024 34.185C13.6427 33.899 13.342 33.4957 13.122 32.975C12.9093 32.4543 12.803 31.842 12.803 31.138C12.803 30.434 12.9093 29.8217 13.122 29.301C13.342 28.7803 13.6427 28.3807 14.024 28.102C14.4053 27.816 14.8417 27.673 15.333 27.673ZM15.333 28.487C15.003 28.487 14.7133 28.597 14.464 28.817C14.222 29.0297 14.0313 29.3377 13.892 29.741C13.7527 30.137 13.683 30.6027 13.683 31.138C13.683 31.6733 13.7527 32.1427 13.892 32.546C14.0313 32.942 14.222 33.25 14.464 33.47C14.7133 33.69 15.003 33.8 15.333 33.8C15.6557 33.8 15.938 33.69 16.18 33.47C16.4293 33.25 16.6237 32.942 16.763 32.546C16.9023 32.1427 16.972 31.6733 16.972 31.138C16.972 30.6027 16.9023 30.137 16.763 29.741C16.6237 29.3377 16.4293 29.0297 16.18 28.817C15.938 28.597 15.6557 28.487 15.333 28.487Z" fill="#F76059"/>
</svg>
