<svg width="24" height="40" viewBox="0 0 24 40" fill="none" xmlns="http://www.w3.org/2000/svg">
<path d="M21 21L16.657 16.657M16.657 16.657C17.3998 15.9141 17.9891 15.0321 18.3912 14.0615C18.7932 13.0909 19.0002 12.0506 19.0002 11C19.0002 9.94936 18.7932 8.90905 18.3912 7.93842C17.9891 6.96779 17.3998 6.08585 16.657 5.34296C15.9141 4.60007 15.0321 4.01078 14.0615 3.60874C13.0909 3.20669 12.0506 2.99976 11 2.99976C9.94936 2.99976 8.90905 3.20669 7.93842 3.60874C6.96779 4.01078 6.08585 4.60007 5.34296 5.34296C3.84263 6.84329 2.99976 8.87818 2.99976 11C2.99976 13.1217 3.84263 15.1566 5.34296 16.657C6.84329 18.1573 8.87818 19.0002 11 19.0002C13.1217 19.0002 15.1566 18.1573 16.657 16.657Z" stroke="#A19F9F" stroke-width="1.5" stroke-linecap="round" stroke-linejoin="round"/>
<path d="M6.67686 27.552H7.63386C7.63386 28.3807 7.44686 29.1323 7.07286 29.807C6.69886 30.4743 6.16719 31.0463 5.47786 31.523C4.79586 31.9997 3.97819 32.3773 3.02486 32.656L2.65086 31.941C3.48686 31.699 4.20553 31.3837 4.80686 30.995C5.40819 30.6063 5.87019 30.1553 6.19286 29.642C6.51553 29.1213 6.67686 28.553 6.67686 27.937V27.552ZM3.15686 27.552H7.29286V28.289H3.15686V27.552ZM9.81186 26.914H10.7249V32.579H9.81186V26.914ZM7.65586 29.466H9.97686V30.225H7.65586V29.466ZM4.31186 33.008H10.7249V36.715H4.31186V33.008ZM9.82286 33.734H5.20286V35.978H9.82286V33.734ZM14.519 27.508H15.245V28.828C15.245 29.3267 15.1533 29.8217 14.97 30.313C14.794 30.8043 14.5337 31.248 14.189 31.644C13.8443 32.04 13.4263 32.348 12.935 32.568L12.44 31.853C12.8727 31.655 13.243 31.391 13.551 31.061C13.8663 30.731 14.1047 30.3717 14.266 29.983C14.4347 29.5943 14.519 29.2093 14.519 28.828V27.508ZM14.673 27.508H15.399V28.828C15.399 29.202 15.476 29.5723 15.63 29.939C15.7913 30.2983 16.0223 30.6247 16.323 30.918C16.6237 31.2113 16.983 31.4423 17.401 31.611L16.917 32.315C16.4403 32.117 16.0333 31.8383 15.696 31.479C15.3587 31.1197 15.102 30.7127 14.926 30.258C14.7573 29.8033 14.673 29.3267 14.673 28.828V27.508ZM19.953 26.914H20.822V32.92H19.953V26.914ZM18.347 29.499H20.217V30.258H18.347V29.499ZM17.819 27.09H18.677V32.865H17.819V27.09ZM14.156 33.47H20.822V36.858H19.92V34.218H14.156V33.47Z" fill="#6F6B6B"/>
</svg>
