<svg width="152" height="28" viewBox="0 0 152 28" fill="none" xmlns="http://www.w3.org/2000/svg">
<path d="M7.68299 27.35C6.70299 27.35 5.73465 27.2333 4.77799 27C3.82132 26.7433 2.96965 26.44 2.22299 26.09C1.47632 25.7167 0.91632 25.3433 0.542987 24.97L2.39799 21.645C2.65465 21.855 3.05132 22.135 3.58799 22.485C4.14799 22.8117 4.78965 23.1033 5.51299 23.36C6.23632 23.6167 6.95965 23.745 7.68299 23.745C8.87299 23.745 9.86465 23.465 10.658 22.905C11.4747 22.345 11.883 21.5283 11.883 20.455C11.883 19.5683 11.6497 18.8333 11.183 18.25C10.7163 17.6667 10.098 17.1533 9.32799 16.71C8.58132 16.2667 7.76465 15.8467 6.87799 15.45C6.01465 15.03 5.18632 14.5633 4.39299 14.05C3.48299 13.4433 2.68965 12.6383 2.01299 11.635C1.33632 10.6317 0.997987 9.33667 0.997987 7.75C0.997987 6.18667 1.34799 4.90333 2.04799 3.9C2.77132 2.89667 3.71632 2.15 4.88299 1.66C6.07299 1.14667 7.36799 0.889998 8.76799 0.889998C9.88799 0.889998 10.8447 1.00666 11.638 1.24C12.4313 1.47333 13.0963 1.75333 13.633 2.08C14.1697 2.40667 14.5897 2.69833 14.893 2.955L13.038 6.14C12.6413 5.72 12.0463 5.335 11.253 4.985C10.4597 4.61167 9.57299 4.425 8.59299 4.425C7.44965 4.425 6.53965 4.69333 5.86299 5.23C5.18632 5.74333 4.84799 6.51333 4.84799 7.54C4.84799 8.45 5.15132 9.23167 5.75799 9.885C6.36465 10.515 7.13465 11.0983 8.06799 11.635C9.02465 12.1483 10.0047 12.6733 11.008 13.21C12.0113 13.7467 12.898 14.3767 13.668 15.1C14.298 15.66 14.8347 16.36 15.278 17.2C15.7213 18.04 15.943 18.985 15.943 20.035C15.943 21.6217 15.5697 22.9633 14.823 24.06C14.0997 25.1567 13.1197 25.985 11.883 26.545C10.6463 27.0817 9.24632 27.35 7.68299 27.35ZM28.3117 27.35C26.0717 27.35 24.275 26.895 22.9217 25.985C21.5917 25.075 20.6233 23.7683 20.0167 22.065C19.4333 20.3617 19.1417 18.3433 19.1417 16.01V1.275H23.0617V16.08C23.0617 18.81 23.47 20.77 24.2867 21.96C25.1267 23.1267 26.4683 23.71 28.3117 23.71C30.155 23.71 31.485 23.1383 32.3017 21.995C33.1183 20.8517 33.5267 18.88 33.5267 16.08V1.275H37.4817V16.01C37.4817 19.6033 36.735 22.3917 35.2417 24.375C33.7483 26.3583 31.4383 27.35 28.3117 27.35ZM41.7254 27V1.275H45.5754V12.755L54.3954 1.275H59.0854L50.2304 12.58L60.3454 27H55.5504L47.6754 15.485L45.5754 18.075V27H41.7254ZM62.4561 27V1.275H68.3011C69.6077 1.275 70.8677 1.40333 72.0811 1.66C73.3177 1.91666 74.4144 2.34833 75.3711 2.955C76.3277 3.56167 77.0861 4.36667 77.6461 5.37C78.2061 6.37333 78.4861 7.61 78.4861 9.08C78.4861 10.7833 78.0894 12.265 77.2961 13.525C76.5027 14.785 75.3011 15.7533 73.6911 16.43L79.8161 27H75.3011L70.1211 17.27C69.7244 17.2933 69.2344 17.3167 68.6511 17.34C68.0911 17.34 67.6244 17.34 67.2511 17.34H66.2711V27H62.4561ZM66.2711 14.155H68.7561C70.0394 14.155 71.0661 13.9917 71.8361 13.665C72.6294 13.3383 73.2361 12.93 73.6561 12.44C74.0761 11.9267 74.3561 11.3783 74.4961 10.795C74.6594 10.1883 74.7411 9.62833 74.7411 9.115C74.7411 7.97167 74.4727 7.07333 73.9361 6.42C73.4227 5.74333 72.6994 5.265 71.7661 4.985C70.8561 4.68167 69.8061 4.53 68.6161 4.53H66.2711V14.155ZM82.9467 27V1.275H94.2167V4.705H86.8317V11.81H92.7817V15.31H86.8317V23.535H95.3717V27H82.9467ZM108.128 1.24H108.513L120.903 27H116.388L114.183 21.96H102.388L100.183 27H95.8081L108.128 1.24ZM108.303 8.695L106.763 12.195L103.963 18.425H112.643L109.878 12.23L108.373 8.695H108.303ZM136.193 27L129.998 14.995L128.388 11.355L127.653 14.995L125.273 27H121.388L126.708 1.275H127.128L134.198 15.17L136.298 19.825L138.398 15.17L145.328 1.275H145.713L151.243 27H147.393L144.803 14.995L144.033 11.355L142.633 14.995L136.403 27H136.193Z" fill="#F76059"/>
</svg>
